<svg id="Layer_1" data-name="Layer 1" xmlns="http://www.w3.org/2000/svg" viewBox="0 0 211.54 211.54"><defs><style>.cls-1{fill:#fefefe;}.cls-2{fill:#25cb5c;}.cls-3{fill:#eeeeef;}.cls-4{isolation:isolate;font-size:30.34px;fill:#5f5d5d;font-family:MyriadPro-Regular, Myriad Pro;}</style></defs><title>avatarLand</title><g id="Layer_1-2" data-name="Layer_1"><rect class="cls-1" width="211.54" height="211.54"/><g id="_2289305804048" data-name=" 2289305804048"><path class="cls-2" d="M277,402.83A16.2,16.2,0,1,1,293.2,419,16.21,16.21,0,0,1,277,402.83Zm31.51,19.68c-1-.49-2.06-.91-3.11-1.3a22.07,22.07,0,1,0-24.38,0,35.34,35.34,0,0,0-23.15,33.12h5.89a29.46,29.46,0,0,1,29.43-29.44,29.12,29.12,0,0,1,12.77,2.9l2.55-5.3Z" transform="translate(-191.67 -315.19)"/><circle class="cls-3" cx="128.82" cy="124.1" r="16.5"/><text class="cls-4" transform="translate(119.8 132.65)">+</text></g></g></svg>