<svg id="Layer_1" data-name="Layer 1" xmlns="http://www.w3.org/2000/svg" viewBox="0 0 513.6 513.6"><defs><style>.cls-1{fill:#3093fd;}.cls-2{fill:#fefefe;}</style></defs><title>beer</title><g id="Layer_1-2" data-name="Layer_1"><circle class="cls-1" cx="256.8" cy="256.8" r="256.8"/><g id="_2874323185888" data-name=" 2874323185888"><path class="cls-2" d="M320,366.17a5.67,5.67,0,0,1,3.53-7.2l43.86-14.92a29.4,29.4,0,0,0-34.9-13.16,29,29,0,0,0-15.38,12.16,5.68,5.68,0,0,1-5.88,2.56,20.51,20.51,0,0,0-21.47,9.54,5.6,5.6,0,0,1-5.07,2.72,20.44,20.44,0,0,0-21.29,21.56l10.38-3.53a5.67,5.67,0,0,1,7.19,3.54L286.61,396A7.47,7.47,0,0,0,301,392.08a8.69,8.69,0,0,0-.29-.86,5.67,5.67,0,0,1,10.69-3.78.56.56,0,0,1,0,.12l2.84,8.3a7.47,7.47,0,0,0,14.14-4.81L320,366.17Z" transform="translate(-42.21 -153.15)"/></g><g id="_2874323186368" data-name=" 2874323186368"><path class="cls-2" d="M252.11,381.8,209,374.09,208,380.16l45.47,7.94A31.54,31.54,0,0,1,252.11,381.8Z" transform="translate(-42.21 -153.15)"/></g><g id="_2874323182576" data-name=" 2874323182576"><path class="cls-2" d="M261.08,354.26A29,29,0,0,0,244,344.62,29.39,29.39,0,0,0,211.54,363L253,370.44a32.09,32.09,0,0,1,9.11-15.31,5.41,5.41,0,0,1-1-.87Z" transform="translate(-42.21 -153.15)"/></g><g id="_2874323179744" data-name=" 2874323179744"><path class="cls-2" d="M297.09,549.57a5.68,5.68,0,0,1-4.62-6.57l4.63-26.42L257.58,400.35l-51.55-9-23.19,132.5a5.67,5.67,0,0,1-6.56,4.61,3.09,3.09,0,1,0-1.28,6l.21,0L296,555.66a3.09,3.09,0,1,0,1.07-6.09Zm-96-18.1,19.62-112.19,11.18,2L212.27,533.43l-11.18-2Zm30.23,5.26,19.62-112.19,11.17,2L242.5,538.69l-11.18-2Zm41.39,7.21-11.16-1.85,11-66.72,11.16,1.85-11,66.72Z" transform="translate(-42.21 -153.15)"/></g><g id="_2874323178160" data-name=" 2874323178160"><rect class="cls-2" x="332.44" y="361.08" width="41.22" height="6.18" transform="translate(-140.69 -20.02) rotate(-18.79)"/></g><g id="_2874323245648" data-name=" 2874323245648"><path class="cls-2" d="M431.46,503.91a3.09,3.09,0,0,0-3.73-1.84,5.66,5.66,0,0,1-7.19-3.54L377.2,371.19l-39,13.28,1,2.93a18.81,18.81,0,0,1-26.12,22.93,19.07,19.07,0,0,1-5.47-4.05,18.64,18.64,0,0,1-26.32,1.44,18.41,18.41,0,0,1-2.68-3L271.82,407l43.32,127.34a5.68,5.68,0,0,1-3.54,7.2h0a3.09,3.09,0,0,0,2,5.85l116.12-39.51a3.1,3.1,0,0,0,1.75-4Zm-96.61,28.4L298.16,424.48l10.74-3.66,36.68,107.83-10.73,3.66Zm29-9.88L327.19,414.61,337.93,411l36.68,107.83Zm29-9.88L356.23,404.73,367,401.08,403.64,508.9Z" transform="translate(-42.21 -153.15)"/></g><g id="_2874323245408" data-name=" 2874323245408"><rect class="cls-2" x="267.01" y="389.29" width="6.18" height="6.18" transform="translate(-154.2 -45.24) rotate(-18.79)"/></g><g id="_2874323246224" data-name=" 2874323246224"><circle class="cls-2" cx="311.79" cy="96.28" r="17.02"/></g><g id="_2874323246752" data-name=" 2874323246752"><circle class="cls-2" cx="260.74" cy="135.98" r="28.36"/></g><g id="_2874323242864" data-name=" 2874323242864"><circle class="cls-2" cx="181.34" cy="141.65" r="22.69"/></g><g id="_2874323225440" data-name=" 2874323225440"><circle class="cls-2" cx="147.3" cy="96.28" r="17.02"/></g><g id="_2874323225344" data-name=" 2874323225344"><path class="cls-2" d="M180.82,375.16a23.44,23.44,0,0,0-27.13,19v0l-14.32,82a23.48,23.48,0,0,0,19.06,27.14l18.78,3.29,2-11.68-14.46-2.53a16,16,0,0,1-13-18.48h0l12.82-73.35a16,16,0,0,1,6.56-10.33,15.77,15.77,0,0,1,11.91-2.66l14.47,2.53,2-11.67-18.77-3.29Z" transform="translate(-42.21 -153.15)"/></g><g id="_2874323224000" data-name=" 2874323224000"><path class="cls-2" d="M456.13,444.77,429.33,366a23.44,23.44,0,0,0-29.76-14.64l-18.05,6.14,3.82,11.22,13.9-4.73a16,16,0,0,1,20.27,10l24,70.5a16,16,0,0,1-10,20.28l-13.91,4.73,3.82,11.21,18.05-6.14a23.48,23.48,0,0,0,14.65-29.75Z" transform="translate(-42.21 -153.15)"/></g></g></svg>