<svg id="Layer_1" data-name="Layer 1" xmlns="http://www.w3.org/2000/svg" viewBox="0 0 530.11 530.11"><defs><style>.cls-1{fill:#ff5ace;}.cls-2{fill:#fefefe;}</style></defs><title>chair</title><g id="Layer_1-2" data-name="Layer_1"><circle class="cls-1" cx="265.06" cy="265.06" r="265.06"/><g id="_2874488984384" data-name=" 2874488984384"><path class="cls-2" d="M447.72,350.1,396.22,303a12,12,0,0,0-7.17-2.37H205.7a12.07,12.07,0,0,0-7.18,2.37L145.79,351.1a11.77,11.77,0,0,0-4.85,9.67v24.08a12.05,12.05,0,0,0,12,12H441.89a12.05,12.05,0,0,0,12-12V360.77C453.93,354.38,447.72,350.1,447.72,350.1Z" transform="translate(-32.38 -155.9)"/><path class="cls-2" d="M165,541.34a12.05,12.05,0,0,1-12-12V384.85h36.11V529.3a12.05,12.05,0,0,1-12,12Z" transform="translate(-32.38 -155.9)"/><path class="cls-2" d="M417.82,541.34a12.05,12.05,0,0,1-12-12V384.85h36.11V529.3a12.05,12.05,0,0,1-12,12Z" transform="translate(-32.38 -155.9)"/><path class="cls-2" d="M381.7,481.15a12.05,12.05,0,0,1-12-12V408.92h24.07v60.19a12.05,12.05,0,0,1-12,12Z" transform="translate(-32.38 -155.9)"/><path class="cls-2" d="M213.17,481.15a12.05,12.05,0,0,1-12-12V408.92h24.08v60.19a12.06,12.06,0,0,1-12,12Z" transform="translate(-32.38 -155.9)"/></g></g></svg>