<svg id="Layer_1" data-name="Layer 1" xmlns="http://www.w3.org/2000/svg" viewBox="0 0 334.5 334.5"><defs><style>.cls-1{fill:#25cb5c;}.cls-2{fill:#fefefe;}</style></defs><title>food</title><g id="Layer_1-2" data-name="Layer_1"><circle class="cls-1" cx="167.25" cy="167.25" r="167.25"/><g id="_2874323186848" data-name=" 2874323186848"><path class="cls-2" d="M297.65,300.53a120.33,120.33,0,0,0-51.83,229l3.77-72.83s-7.09-2.32-8.64-3.08c-15-6.63-26-26.13-26-51.44,0-27.62,21.42-51.41,42.13-51.6h.07c20.72.19,42.14,24,42.14,51.6,0,25.31-10.94,44.81-25.94,51.44l-8.71,3.17,4.2,81A118,118,0,0,0,335.94,535l3.73-72.16a38.65,38.65,0,0,1-23.46-16.27c-6.51-9.75,5-96,5-96h7.49v81h7.44v-81h8.14v81h7.41v-81h8.44v81h7.44v-81h5.75s11.52,86.3,5,96.05a38.79,38.79,0,0,1-23.21,16.22l-.34.13L358,525a120.34,120.34,0,0,0-60.38-224.49Z" transform="translate(-130.19 -253.71)"/><path class="cls-2" d="M232.61,389.91a32.77,32.77,0,0,1,1-3.46,1.57,1.57,0,0,0-.87-1.75,1.45,1.45,0,0,0-1.9.41s-.82,1.31-2,3.25a34.87,34.87,0,0,0-3.39,7.65,63.46,63.46,0,0,0-2.33,11.11,54.19,54.19,0,0,0-.17,6.44,30.38,30.38,0,0,0,1.24,6.83c2.36,6.72,4.18,13.23,10.76,19.66a37.4,37.4,0,0,0,5.75,4.66l.55.38q.5.33,1,.6a10.87,10.87,0,0,0,2.32,1,1.39,1.39,0,0,0,1.58-.66,1.41,1.41,0,0,0-.46-1.67,15.9,15.9,0,0,1-1.72-1.88,35.14,35.14,0,0,1-2.2-3c-.59-.85-1.28-1.82-1.93-2.76-3.2-4.89-5.05-11.71-7.6-18.7a24.9,24.9,0,0,1-1.06-5.15,51.18,51.18,0,0,1-.3-5.51,71.57,71.57,0,0,1,.45-10.21,39.81,39.81,0,0,1,1.29-7.18Z" transform="translate(-130.19 -253.71)"/><path class="cls-2" d="M297.65,278.17c-78.72,0-142.78,64.05-142.78,142.77s64.06,142.78,142.78,142.78,142.76-64.07,142.76-142.78S376.36,278.17,297.65,278.17Zm0,274.9c-72.86,0-132.14-59.28-132.14-132.13s59.28-132.13,132.14-132.13,132.13,59.28,132.13,132.13S370.5,553.07,297.65,553.07Z" transform="translate(-130.19 -253.71)"/></g></g></svg>