<svg id="Layer_1" data-name="Layer 1" xmlns="http://www.w3.org/2000/svg" viewBox="0 0 304.74 304.74"><defs><style>.cls-1{fill:#3c6;}.cls-2,.cls-3{fill:#fff;}.cls-2{stroke:#fff;stroke-miterlimit:10;stroke-width:3px;}</style></defs><title>kasironlinebundar</title><rect class="cls-1" width="304.74" height="304.74" rx="152.37"/><path class="cls-2" d="M426.61,888h10.55v57.2l23.91-24h14.66l-25.91,25.2L478,976.61H463l-25.79-28.84v28.84H426.61Z" transform="translate(-387.44 -807.77)"/><path class="cls-2" d="M487.68,927.84c5.86-5.51,14.3-8.2,22-8.2,16.41,0,23.21,8.91,23.21,18.52v28.37c0,3.87-8.91,10.08-8.91,10.08-.23-2.81-.35-5.63-.35-8.44h-.24c-4.69,7.15-11,9.85-19.46,9.85-10.31,0-19.22-5.87-19.22-16.65,0-14.3,13.71-19.23,30.6-19.23h7.73V939.8c0-5.74-4.22-11.72-13.24-11.72-8.09,0-12,3.4-15.83,6.33Zm29.78,22c-10,0-22.16,1.76-22.16,10.67,0,6.33,4.69,9,12,9,11.72,0,15.82-8.68,15.82-16.18v-3.52Z" transform="translate(-387.44 -807.77)"/><path class="cls-2" d="M577.82,935a14.1,14.1,0,0,0-11.37-5.51c-4.92,0-9.26,2.23-9.26,6.22,0,6.68,9.5,7.62,14.19,8.67,9.14,2.23,16.17,5.75,16.17,16.18,0,12.54-11.49,17.47-22.5,17.47-9.15,0-15.95-2.35-21.46-9.85l8-6.57c3.4,3.4,7.39,6.57,13.49,6.57,5.39,0,11.25-2.23,11.25-7,0-6.33-8.79-7.5-13.37-8.55-9-2.23-17-5.16-17-15.83,0-11.6,10.66-17.11,21.1-17.11,7.38,0,15,2.58,19,9.14Z" transform="translate(-387.44 -807.77)"/><path class="cls-2" d="M606.42,893.38a7.74,7.74,0,1,1-7.74,7.74A7.81,7.81,0,0,1,606.42,893.38ZM601.15,921H611.7v55.57H601.15Z" transform="translate(-387.44 -807.77)"/><path class="cls-2" d="M628.46,921H639v8.56h.23c2.7-5.86,9.73-10,16.65-10a15.11,15.11,0,0,1,4.69.7l-.47,11.37a20.5,20.5,0,0,0-5.16-.82c-10.32,0-15.94,5.63-15.94,17.82v27.9H628.46Z" transform="translate(-387.44 -807.77)"/><path class="cls-3" d="M443.12,986.65A21.83,21.83,0,1,1,421,1008.48,21.84,21.84,0,0,1,443.12,986.65Zm0,36.3c8.42,0,13.68-6.05,13.68-14.47S451.54,994,443.12,994s-13.67,6.05-13.67,14.46S434.71,1023,443.12,1023Z" transform="translate(-387.44 -807.77)"/><path class="cls-3" d="M443.12,1032.3a23.82,23.82,0,1,1,24.08-23.82A23.7,23.7,0,0,1,443.12,1032.3Zm0-43.66a19.85,19.85,0,1,0,20.11,19.84A19.77,19.77,0,0,0,443.12,988.64Zm0,36.3c-9.22,0-15.66-6.77-15.66-16.46S433.9,992,443.12,992s15.67,6.77,15.67,16.45S452.34,1024.94,443.12,1024.94Zm0-28.94c-7.1,0-11.69,4.9-11.69,12.48S436,1021,443.12,1021s11.69-4.89,11.69-12.48S450.23,996,443.12,996Z" transform="translate(-387.44 -807.77)"/><path class="cls-3" d="M475.12,987.7H483v6.4h.18c2-4.38,7.28-7.45,13.68-7.45,8.06,0,15.08,4.82,15.08,15.87v26.74h-7.89v-24.55c0-7.8-4.48-10.69-9.47-10.69C488,994,483,998.23,483,1007.87v21.39h-7.89Z" transform="translate(-387.44 -807.77)"/><path class="cls-3" d="M513.93,1031.25H502.07v-26.54c0-7.2-4.07-8.71-7.48-8.71-6.19,0-9.59,4.22-9.59,11.87v23.38H473.14V985.72H485v2.93a18.62,18.62,0,0,1,11.87-4c10.36,0,17.06,7,17.06,17.85Zm-7.89-4H510v-24.76c0-8.69-4.89-13.88-13.09-13.88-5.46,0-10.12,2.47-11.88,6.29l-.53,1.16H481v-6.4h-3.92v37.59H481v-19.41C481,998,486.1,992,494.59,992c5.53,0,11.45,3.33,11.45,12.68Z" transform="translate(-387.44 -807.77)"/><path class="cls-3" d="M524.48,963h7.89v66.28h-7.89Z" transform="translate(-387.44 -807.77)"/><path class="cls-3" d="M534.36,1031.25H522.5V961h11.86Zm-7.89-4h3.92V965h-3.92Z" transform="translate(-387.44 -807.77)"/><path class="cls-3" d="M545.53,987.7h7.89v41.56h-7.89Z" transform="translate(-387.44 -807.77)"/><path class="cls-3" d="M555.4,1031.25H543.54V985.72H555.4Zm-7.89-4h3.92V989.69h-3.92Z" transform="translate(-387.44 -807.77)"/><path class="cls-3" d="M566,987.7h7.89v6.4H574c2-4.38,7.28-7.45,13.68-7.45,8.06,0,15.08,4.82,15.08,15.87v26.74h-7.89v-24.55c0-7.8-4.48-10.69-9.47-10.69-6.58,0-11.58,4.21-11.58,13.85v21.39H566Z" transform="translate(-387.44 -807.77)"/><path class="cls-3" d="M604.76,1031.25H592.9v-26.54c0-7.2-4.07-8.71-7.48-8.71-6.19,0-9.59,4.22-9.59,11.87v23.38H564V985.72h11.86v2.93a18.6,18.6,0,0,1,11.87-4c10.36,0,17.06,7,17.06,17.85Zm-7.89-4h3.92v-24.76c0-8.69-4.89-13.88-13.09-13.88-5.46,0-10.12,2.47-11.88,6.29l-.53,1.16h-3.43v-6.4h-3.92v37.59h3.92v-19.41c0-9.92,5.07-15.84,13.56-15.84,5.53,0,11.45,3.33,11.45,12.68Z" transform="translate(-387.44 -807.77)"/><path class="cls-3" d="M620.66,1011.38c0,7.27,6.75,12.1,14,12.1,4.82,0,8.33-2.46,11.4-6.23l6,4.56c-4.38,5.7-10.43,8.5-18.41,8.5-13.15,0-21.4-9.46-21.4-21.83s9-21.83,21.49-21.83c14.64,0,20.25,11.22,20.25,21.92v2.81Zm24.9-6.32c-.17-6.92-4-12.09-12-12.09-7.8,0-12.89,6.57-12.89,12.09Z" transform="translate(-387.44 -807.77)"/><path class="cls-3" d="M633.64,1032.3c-13.77,0-23.38-9.79-23.38-23.82,0-13.57,10.09-23.81,23.47-23.81,16.41,0,22.23,12.87,22.23,23.9v4.79h-33.1c1.13,5.13,6.56,8.13,11.83,8.13,3.73,0,6.77-1.69,9.86-5.49l1.21-1.5,9.08,6.94-1.22,1.58C648.89,1029.18,642.16,1032.3,633.64,1032.3Zm.09-43.66c-11.3,0-19.5,8.34-19.5,19.84,0,11.87,7.8,19.85,19.41,19.85,6.57,0,11.68-2,15.55-6.21l-2.83-2.16c-3.5,3.74-7.25,5.5-11.67,5.5-7.87,0-16-5.27-16-14.08v-2H652v-.82C652,998.94,647.19,988.64,633.73,988.64Zm13.87,18.41H618.68v-2c0-6.66,6.1-14.08,14.87-14.08,8.41,0,13.78,5.38,14,14Zm-24.69-4H643.4c-.58-3.68-2.74-8.13-9.85-8.13A10.94,10.94,0,0,0,622.91,1003.08Z" transform="translate(-387.44 -807.77)"/></svg>