<?xml version="1.0" encoding="utf-8"?>
<!-- Generator: Adobe Illustrator 24.0.1, SVG Export Plug-In . SVG Version: 6.00 Build 0)  -->
<svg version="1.1" id="Layer_1" xmlns="http://www.w3.org/2000/svg" xmlns:xlink="http://www.w3.org/1999/xlink" x="0px" y="0px"
	 viewBox="0 0 243.1 145.8" style="enable-background:new 0 0 243.1 145.8;" xml:space="preserve">
<style type="text/css">
	.st0{fill:#33CC66;stroke:#33CC66;stroke-width:3;stroke-miterlimit:10;}
	.st1{fill:#33CC66;}
</style>
<title>kasironline</title>
<path class="st0" d="M7.6,1.5h10.5v57.2l23.9-24h14.6L30.8,59.9l28.1,30.2h-15L18.1,61.3v28.8H7.6V1.5z"/>
<path class="st0" d="M68.7,41.4c5.9-5.5,14.3-8.2,22-8.2c16.4,0,23.2,8.9,23.2,18.5V80c0,3.9-8.9,10.1-8.9,10.1
	c-0.2-2.8-0.4-5.6-0.4-8.4h-0.2c-4.7,7.2-11,9.8-19.5,9.8c-10.3,0-19.3-5.8-19.3-16.6c0-14.3,13.7-19.2,30.6-19.2h7.7v-2.3
	c0-5.8-4.2-11.7-13.3-11.7c-8.1,0-12,3.4-15.8,6.3L68.7,41.4z M98.5,63.4c-10,0-22.2,1.8-22.2,10.7c0,6.3,4.7,9,12,9
	c11.7,0,15.8-8.7,15.8-16.2v-3.5L98.5,63.4z"/>
<path class="st0" d="M158.8,48.5c-2.7-3.5-6.9-5.6-11.4-5.5c-4.9,0-9.3,2.2-9.3,6.2c0,6.7,9.5,7.6,14.2,8.7
	c9.1,2.2,16.2,5.7,16.2,16.2c0,12.5-11.5,17.5-22.5,17.5c-9.1,0-15.9-2.3-21.5-9.8l8-6.6c3.4,3.4,7.4,6.6,13.5,6.6
	c5.4,0,11.3-2.2,11.3-7c0-6.3-8.8-7.5-13.4-8.6c-9-2.2-17-5.2-17-15.8c0-11.6,10.7-17.1,21.1-17.1c7.4,0,15,2.6,19,9.2L158.8,48.5z"
	/>
<path class="st0" d="M187.4,6.9c4.3,0,7.7,3.5,7.7,7.7c0,4.3-3.5,7.7-7.7,7.7c-4.3,0-7.7-3.5-7.7-7.7l0,0
	C179.7,10.4,183.1,6.9,187.4,6.9z M182.1,34.6h10.6v55.6h-10.6V34.6z"/>
<path class="st0" d="M209.4,34.6H220v8.6h0.2c2.7-5.9,9.7-10,16.6-10c1.6,0,3.2,0.2,4.7,0.7l-0.5,11.4c-1.7-0.5-3.4-0.8-5.2-0.8
	c-10.3,0-15.9,5.6-15.9,17.8v27.9h-10.6V34.6z"/>
<path class="st1" d="M24.1,100.2c12.1,0.1,21.7,10,21.6,22.1c-0.1,12.1-10,21.7-22.1,21.6C11.6,143.7,2,134,2,122
	c0-12.1,9.8-21.8,21.8-21.8C23.9,100.2,24,100.2,24.1,100.2z M24.1,136.5c8.4,0,13.7-6,13.7-14.5s-5.3-14.5-13.7-14.5
	s-13.7,6-13.7,14.5S15.7,136.5,24.1,136.5L24.1,136.5z"/>
<path class="st1" d="M24.1,145.8c-13.2-0.1-23.7-10.9-23.6-24.1C0.7,108.6,11.4,98,24.6,98.2c13.1,0.1,23.6,10.8,23.6,23.8
	c0.1,13.1-10.5,23.8-23.6,23.8C24.4,145.8,24.2,145.8,24.1,145.8z M24.1,102.2c-11,0.1-19.7,9.1-19.6,20.1
	c0.1,11,9.1,19.7,20.1,19.6c10.9-0.1,19.6-9,19.6-19.8c0-10.9-8.8-19.8-19.7-19.9C24.4,102.1,24.2,102.1,24.1,102.2z M24.1,138.5
	c-9.2,0-15.7-6.8-15.7-16.5s6.4-16.5,15.7-16.5s15.7,6.8,15.7,16.5S33.3,138.5,24.1,138.5z M24.1,109.5c-7.1,0-11.7,4.9-11.7,12.5
	s4.6,12.5,11.7,12.5s11.7-4.9,11.7-12.5S31.2,109.5,24.1,109.5z"/>
<path class="st1" d="M56.1,101.2H64v6.4h0.2c2-4.4,7.3-7.5,13.7-7.5c8.1,0,15.1,4.8,15.1,15.9v26.7H85v-24.6
	c0-7.8-4.5-10.7-9.5-10.7c-6.6,0-11.6,4.2-11.6,13.9v21.4h-7.9V101.2z"/>
<path class="st1" d="M94.9,144.8H83v-26.5c0-7.2-4.1-8.7-7.5-8.7c-6.2,0-9.6,4.2-9.6,11.9v23.4H54.1V99.2h11.9v2.9
	c3.4-2.7,7.6-4.1,11.9-4c10.4,0,17.1,7,17.1,17.9V144.8z M87,140.8h3.9V116c0-8.7-4.9-13.9-13.1-13.9c-5.5,0-10.1,2.5-11.9,6.3
	l-0.5,1.2H62v-6.4h-3.9v37.6H62v-19.4c0-9.9,5.1-15.8,13.6-15.8c5.5,0,11.5,3.3,11.5,12.7V140.8z"/>
<path class="st1" d="M105.4,76.5h7.9v66.3h-7.9V76.5z"/>
<path class="st1" d="M115.3,144.8h-11.9V74.5h11.9L115.3,144.8z M107.4,140.8h3.9V78.5h-3.9V140.8z"/>
<path class="st1" d="M126.5,101.2h7.9v41.6h-7.9V101.2z"/>
<path class="st1" d="M136.4,144.8h-11.9V99.2h11.9V144.8z M128.5,140.8h3.9v-37.5h-3.9V140.8z"/>
<path class="st1" d="M146.9,101.2h7.9v6.4h0.2c2-4.4,7.3-7.5,13.7-7.5c8.1,0,15.1,4.8,15.1,15.9v26.7h-7.9v-24.6
	c0-7.8-4.5-10.7-9.5-10.7c-6.6,0-11.6,4.2-11.6,13.9v21.4h-7.9L146.9,101.2z"/>
<path class="st1" d="M185.7,144.8h-11.8v-26.5c0-7.2-4.1-8.7-7.5-8.7c-6.2,0-9.6,4.2-9.6,11.9v23.4h-11.9V99.2h11.9v2.9
	c3.4-2.7,7.6-4.1,11.9-4c10.4,0,17.1,7,17.1,17.9L185.7,144.8z M177.8,140.8h3.9V116c0-8.7-4.9-13.9-13.1-13.9
	c-5.5,0-10.1,2.5-11.9,6.3l-0.5,1.2h-3.4v-6.4h-3.9v37.6h3.9v-19.4c0-9.9,5.1-15.8,13.6-15.8c5.5,0,11.5,3.3,11.5,12.7V140.8z"/>
<path class="st1" d="M201.6,124.9c0,7.3,6.8,12.1,14,12.1c4.8,0,8.3-2.5,11.4-6.2l6,4.6c-4.4,5.7-10.4,8.5-18.4,8.5
	c-13.1,0-21.4-9.5-21.4-21.8s9-21.8,21.5-21.8c14.6,0,20.3,11.2,20.3,21.9v2.8L201.6,124.9z M226.5,118.6c-0.2-6.9-4-12.1-12-12.1
	c-7.8,0-12.9,6.6-12.9,12.1H226.5z"/>
<path class="st1" d="M214.6,145.8c-13.8,0-23.4-9.8-23.4-23.8c0-13.6,10.1-23.8,23.5-23.8c16.4,0,22.2,12.9,22.2,23.9v4.8h-33.1
	c1.1,5.1,6.6,8.1,11.8,8.1c3.7,0,6.8-1.7,9.9-5.5l1.2-1.5l9.1,6.9l-1.2,1.6C229.8,142.7,223.1,145.8,214.6,145.8z M214.7,102.2
	c-11.3,0-19.5,8.3-19.5,19.8c0,11.9,7.8,19.8,19.4,19.8c6.6,0,11.7-2,15.6-6.2l-2.8-2.2c-3.5,3.7-7.3,5.5-11.7,5.5
	c-7.9,0-16-5.3-16-14.1v-2H233v-0.8C233,112.5,228.1,102.2,214.7,102.2z M228.5,120.6h-28.9v-2c0-6.7,6.1-14.1,14.9-14.1
	c8.4,0,13.8,5.4,14,14V120.6z M203.9,116.6h20.5c-0.6-3.7-2.7-8.1-9.9-8.1C209.5,108.4,205.1,111.8,203.9,116.6L203.9,116.6z"/>
</svg>
