<svg id="Layer_1" data-name="Layer 1" xmlns="http://www.w3.org/2000/svg" viewBox="0 0 541.91 541.91"><defs><style>.cls-1{fill:#ffc23f;}.cls-2{fill:#fefefe;}</style></defs><title>news</title><g id="Layer_1-2" data-name="Layer_1"><circle class="cls-1" cx="270.96" cy="270.96" r="270.96"/><g id="_2874430172704" data-name=" 2874430172704"><path class="cls-2" d="M370.52,532.19V291.64a8.63,8.63,0,0,0-8.63-8.64H158.74a8.63,8.63,0,0,0-8.63,8.64V514.93a43.21,43.21,0,0,0,43.16,43.16H379.18A43,43,0,0,1,370.52,532.19ZM196.15,448.75h27.62a8.63,8.63,0,0,1,0,17.26H196.15a8.63,8.63,0,1,1,0-17.26Zm-8.64-28.2a8.63,8.63,0,0,1,8.64-8.63h27.62a8.63,8.63,0,1,1,0,17.26H196.15A8.63,8.63,0,0,1,187.51,420.55Zm137.55,96.11H196.15a8.64,8.64,0,1,1,0-17.27H325.06a8.64,8.64,0,0,1,0,17.27Zm8.63-45.47a8.63,8.63,0,0,1-8.63,8.63H260.6a8.63,8.63,0,0,1-8.63-8.63V406.74a8.63,8.63,0,0,1,8.63-8.64h64.46a8.63,8.63,0,0,1,8.63,8.64Zm-8.63-92.65H196.15a8.64,8.64,0,1,1,0-17.27H325.06a8.64,8.64,0,0,1,0,17.27Zm0-36.84H196.15a8.63,8.63,0,1,1,0-17.26H325.06a8.63,8.63,0,0,1,0,17.26Z" transform="translate(-26.48 -150)"/><polygon class="cls-2" points="242.75 265.36 289.94 265.36 289.94 312.56 242.75 312.56 242.75 265.36"/><path class="cls-2" d="M436.13,342.86H387.79c0,195.6,0,189.34,0,189.34a28.48,28.48,0,0,0,56.89-.64s0,4.32,0-180.07a8.63,8.63,0,0,0-8.63-8.63Z" transform="translate(-26.48 -150)"/></g></g></svg>