<svg id="Layer_1" data-name="Layer 1" xmlns="http://www.w3.org/2000/svg" viewBox="0 0 321.49 321.47"><defs><style>.cls-1{fill:#ff3c35;}</style></defs><title>user</title><g id="Layer_1-2" data-name="Layer_1"><path class="cls-1" d="M297.44,260.22A160.74,160.74,0,1,0,458.18,421,160.75,160.75,0,0,0,297.44,260.22Zm0,48.07a53.17,53.17,0,1,1-53.16,53.16A53.17,53.17,0,0,1,297.44,308.29Zm0,231.38a118,118,0,0,1-76.82-28.33,22.65,22.65,0,0,1-8-17.22,53.62,53.62,0,0,1,53.88-53.6h61.87a53.54,53.54,0,0,1,53.79,53.6,22.59,22.59,0,0,1-7.94,17.22A118,118,0,0,1,297.4,539.67Z" transform="translate(-136.69 -260.22)"/></g></svg>